<?xml version="1.0" standalone="no"?>
<!DOCTYPE svg PUBLIC "-//W3C//DTD SVG 1.1//EN" "http://www.w3.org/Graphics/SVG/1.1/DTD/svg11.dtd">
<svg width="40px" height="40px" viewBox="0 0 40 40" version="1.1" xmlns="http://www.w3.org/2000/svg" xmlns:xlink="http://www.w3.org/1999/xlink" xml:space="preserve" style="fill-rule:evenodd;clip-rule:evenodd;stroke-linejoin:round;stroke-miterlimit:1.41421;" x="0px" y="0px">
    <defs>
        <style type="text/css"><![CDATA[
            @-webkit-keyframes spin {
              from {
                -webkit-transform: rotate(0deg)
              }
              to {
                -webkit-transform: rotate(-359deg)
              }
            }
            @keyframes spin {
              from {
                transform: rotate(0deg)
              }
              to {
                transform: rotate(-359deg)
              }
            }
            svg {
                -webkit-transform-origin: 50% 50%;
                -webkit-animation: spin 1.5s linear infinite;
                -webkit-backface-visibility: hidden;
                animation: spin 1.5s linear infinite;
            }
        ]]></style>
    </defs>
    <g id="outer">
        <g>
            <path d="M20,0C22.2058,0 23.9939,1.78813 23.9939,3.9939C23.9939,6.19968 22.2058,7.98781 20,7.98781C17.7942,7.98781 16.0061,6.19968 16.0061,3.9939C16.0061,1.78813 17.7942,0 20,0Z" style="fill:black;"/>
        </g>
        <g>
            <path d="M5.85786,5.85786C7.41758,4.29815 9.94638,4.29815 11.5061,5.85786C13.0658,7.41758 13.0658,9.94638 11.5061,11.5061C9.94638,13.0658 7.41758,13.0658 5.85786,11.5061C4.29815,9.94638 4.29815,7.41758 5.85786,5.85786Z" style="fill:rgb(210,210,210);"/>
        </g>
        <g>
            <path d="M20,32.0122C22.2058,32.0122 23.9939,33.8003 23.9939,36.0061C23.9939,38.2119 22.2058,40 20,40C17.7942,40 16.0061,38.2119 16.0061,36.0061C16.0061,33.8003 17.7942,32.0122 20,32.0122Z" style="fill:rgb(130,130,130);"/>
        </g>
        <g>
            <path d="M28.4939,28.4939C30.0536,26.9342 32.5824,26.9342 34.1421,28.4939C35.7019,30.0536 35.7019,32.5824 34.1421,34.1421C32.5824,35.7019 30.0536,35.7019 28.4939,34.1421C26.9342,32.5824 26.9342,30.0536 28.4939,28.4939Z" style="fill:rgb(101,101,101);"/>
        </g>
        <g>
            <path d="M3.9939,16.0061C6.19968,16.0061 7.98781,17.7942 7.98781,20C7.98781,22.2058 6.19968,23.9939 3.9939,23.9939C1.78813,23.9939 0,22.2058 0,20C0,17.7942 1.78813,16.0061 3.9939,16.0061Z" style="fill:rgb(187,187,187);"/>
        </g>
        <g>
            <path d="M5.85786,28.4939C7.41758,26.9342 9.94638,26.9342 11.5061,28.4939C13.0658,30.0536 13.0658,32.5824 11.5061,34.1421C9.94638,35.7019 7.41758,35.7019 5.85786,34.1421C4.29815,32.5824 4.29815,30.0536 5.85786,28.4939Z" style="fill:rgb(164,164,164);"/>
        </g>
        <g>
            <path d="M36.0061,16.0061C38.2119,16.0061 40,17.7942 40,20C40,22.2058 38.2119,23.9939 36.0061,23.9939C33.8003,23.9939 32.0122,22.2058 32.0122,20C32.0122,17.7942 33.8003,16.0061 36.0061,16.0061Z" style="fill:rgb(74,74,74);"/>
        </g>
        <g>
            <path d="M28.4939,5.85786C30.0536,4.29815 32.5824,4.29815 34.1421,5.85786C35.7019,7.41758 35.7019,9.94638 34.1421,11.5061C32.5824,13.0658 30.0536,13.0658 28.4939,11.5061C26.9342,9.94638 26.9342,7.41758 28.4939,5.85786Z" style="fill:rgb(50,50,50);"/>
        </g>
    </g>
</svg>
